<svg width="24" height="24" viewBox="0 0 24 24" fill="none" xmlns="http://www.w3.org/2000/svg">
  <title>Car front (filled)</title>
  <g transform="matrix(
          1 0
          0 1
          1 3
        )"><path fill-rule="nonzero" clip-rule="nonzero" d="M 19.89990234375 6 L 18.39990234375 1.4000244140625 C 18.099903106689453 0.600024402141571 17.399999618530273 0 16.5 0 L 5.39990234375 0 C 4.499902248382568 0 3.799999952316284 0.5000244379043579 3.5 1.4000244140625 L 2 6 L 0 6 L 0 9 L 1 9 L 1 18 L 5 18 L 5 16 L 17 16 L 17 18 L 21 18 L 21 9 L 22 9 L 22 6 L 19.89990234375 6 Z M 4 11 L 8 11 L 8 13 L 4 13 L 4 11 Z M 14 13 L 14 11 L 18 11 L 18 13 L 14 13 Z M 6.10009765625 3 L 15.7998046875 3 L 17.10009765625 7 L 4.7998046875 7 L 6.10009765625 3 Z" fill="currentColor"/></g>
</svg>