<svg width="24" height="24" viewBox="0 0 24 24" fill="none" xmlns="http://www.w3.org/2000/svg">
  <title>Steering wheel (filled)</title>
  <g transform="matrix(
          1 0
          0 1
          1 1
        )"><path fill-rule="nonzero" clip-rule="nonzero" d="M 11 0 C 4.900000095367432 0 0 4.900000095367432 0 11 C 0 17.100000381469727 4.900000095367432 22 11 22 C 17.100000381469727 22 22 17.100000381469727 22 11 C 22 4.900000095367432 17.100000381469727 0 11 0 Z M 11 3 C 14.899999618530273 3 18.099903106689453 5.800000190734863 18.89990234375 9.5 L 15.800048828125 9.5 C 15.200048446655273 7.5 13.300097465515137 6 11.10009765625 6 C 8.900097846984863 6 6.999902248382568 7.5 6.39990234375 9.5 L 3.300048828125 9.5 C 3.9000487327575684 5.800000190734863 7.099999904632568 3 11 3 Z M 11 13 C 9.899999618530273 13 9 12.100000381469727 9 11 C 9 9.899999618530273 9.899999618530273 9 11 9 C 12.100000381469727 9 13 9.899999618530273 13 11 C 13 12.100000381469727 12.100000381469727 13 11 13 Z M 3.10009765625 12.5 L 6.199951171875 12.5 C 6.699951171875 14 7.89990234375 15.300012588500977 9.39990234375 15.70001220703125 L 9.39990234375 18.79998779296875 C 6.299902439117432 18.199987411499023 3.800097703933716 15.699999809265137 3.10009765625 12.5 Z M 12.5 18.9000244140625 L 12.5 15.79998779296875 C 14 15.29998779296875 15.299951553344727 14.0999755859375 15.699951171875 12.5999755859375 L 18.800048828125 12.5999755859375 C 18.200048446655273 15.699975967407227 15.699999809265137 18.200023651123047 12.5 18.9000244140625 Z" fill="currentColor"/></g>
</svg>